<svg fill="#FFFFFF" xmlns="http://www.w3.org/2000/svg"  viewBox="0 0 50 50" width="100px" height="100px"><path d="M 25 6.5 C 24.872 6.5 24.743984 6.5489844 24.646484 6.6464844 L 20.851562 10.441406 L 15.529297 9.0175781 C 15.398297 8.9825781 15.259578 9.0022656 15.142578 9.0722656 C 15.025578 9.1422656 14.941109 9.257625 14.912109 9.390625 L 14.099609 13 L 9 13 C 8.838 13 8.6857969 13.078938 8.5917969 13.210938 C 8.4977969 13.343937 8.4742969 13.514969 8.5292969 13.667969 L 10.068359 18 L 8.5292969 22.332031 C 8.4692969 22.500031 8.5031406 22.688219 8.6191406 22.824219 C 8.7351406 22.960219 8.9157969 23.024234 9.0917969 22.990234 L 11 22.628906 L 11 26.5 L 11 26.75 C 11 26.75 10.175781 27.767266 10.175781 29.447266 C 10.175781 31.697266 11.908625 33.185172 13.140625 33.826172 C 13.523624 35.512075 14.312146 37.026795 15.318359 38.349609 C 15.319816 38.35213 15.320763 38.354923 15.322266 38.357422 C 16.372955 39.736919 17.664003 40.902646 19.015625 41.806641 C 19.081705 41.889532 19.168423 41.956657 19.279297 41.984375 C 19.285235 41.985823 19.290976 41.98509 19.296875 41.986328 C 21.319465 43.279076 23.431413 44 25 44 C 26.567997 44 28.679275 43.280107 30.701172 41.988281 C 30.707728 41.987043 30.7141 41.987778 30.720703 41.986328 C 30.830043 41.958891 30.914595 41.890238 30.980469 41.808594 C 32.328684 40.907392 33.616345 39.745514 34.666016 38.371094 C 34.670998 38.363388 34.679066 38.357538 34.683594 38.349609 C 35.689455 37.027018 36.476468 35.511669 36.859375 33.826172 C 38.091375 33.185172 39.824219 31.972656 39.824219 29.722656 C 39.824219 28.042656 39 26.75 39 26.75 L 39 26.5 L 39 22.632812 L 40.908203 22.990234 C 40.938203 22.996234 40.97 23 41 23 C 41.145 23 41.284859 22.936219 41.380859 22.824219 C 41.496859 22.688219 41.531703 22.500031 41.470703 22.332031 L 39.931641 18 L 41.470703 13.667969 C 41.524703 13.513969 41.502203 13.344891 41.408203 13.212891 C 41.314203 13.079891 41.162 13 41 13 L 35.900391 13 L 35.087891 9.390625 C 35.057891 9.257625 34.976375 9.1422656 34.859375 9.0722656 C 34.742375 9.0022656 34.601703 8.9825781 34.470703 9.0175781 L 29.150391 10.441406 L 25.353516 6.6464844 C 25.256016 6.5489844 25.128 6.5 25 6.5 z M 25 7.7070312 L 28.646484 11.353516 C 28.771484 11.479516 28.959906 11.530422 29.128906 11.482422 L 34.226562 10.117188 L 35.011719 13.609375 C 35.063719 13.837375 35.266 14 35.5 14 L 40.292969 14 L 38.929688 17.832031 C 38.891688 17.940031 38.891688 18.059969 38.929688 18.167969 L 40.236328 21.847656 L 35.488281 20.957031 C 35.458281 20.954031 35.430391 20.952219 35.400391 20.949219 L 14.544922 20.958984 C 14.519922 20.958984 14.49375 20.961797 14.46875 20.966797 L 9.7617188 21.847656 L 11.070312 18.167969 C 11.109312 18.059969 11.109312 17.940031 11.070312 17.832031 L 9.7070312 14 L 14.5 14 C 14.734 14 14.936281 13.837375 14.988281 13.609375 L 15.773438 10.117188 L 20.871094 11.482422 C 21.040094 11.531422 21.227516 11.479516 21.353516 11.353516 L 25 7.7070312 z M 14.599609 21.949219 L 20 21.949219 L 20 26 L 12 26 L 12 22.441406 L 14.599609 21.949219 z M 21 21.949219 L 29 21.949219 L 29 26 L 21 26 L 21 21.949219 z M 30 21.949219 L 35.353516 21.949219 L 38 22.445312 L 38 26 L 30 26 L 30 21.949219 z M 12 27 L 38 27 C 38 27 38.823266 28.211656 38.822266 29.722656 C 38.822266 32.146656 35.986328 33.152344 35.986328 33.152344 C 35.678652 34.700712 35.047028 36.076117 34.230469 37.275391 C 33.719101 36.669952 32.998126 35.955972 31.791016 35.09375 C 31.565016 34.93375 31.25475 34.985937 31.09375 35.210938 C 30.93375 35.434938 30.983984 35.74625 31.208984 35.90625 C 32.463052 36.801646 33.138086 37.510723 33.613281 38.103516 C 32.788839 39.123159 31.833934 39.986783 30.841797 40.695312 C 30.504151 39.932161 29.901168 39.049139 28.980469 37.974609 C 28.799469 37.763609 28.483391 37.741922 28.275391 37.919922 C 28.065391 38.099922 28.040703 38.416 28.220703 38.625 C 29.149298 39.707792 29.715961 40.568653 29.984375 41.263672 C 28.135705 42.399892 26.268091 43 25 43 C 23.741375 43 21.876248 42.372538 20.029297 41.224609 C 20.304162 40.535869 20.867473 39.686284 21.779297 38.623047 C 21.958297 38.414047 21.934609 38.099922 21.724609 37.919922 C 21.517609 37.741922 21.199531 37.764609 21.019531 37.974609 C 20.115696 39.029458 19.515145 39.898811 19.173828 40.652344 C 18.182527 39.940947 17.225811 39.084082 16.402344 38.082031 C 16.877341 37.493324 17.549682 36.791159 18.789062 35.90625 C 19.013062 35.74625 19.06625 35.433984 18.90625 35.208984 C 18.74525 34.983984 18.434031 34.93375 18.207031 35.09375 C 17.009106 35.94865 16.28806 36.656875 15.777344 37.259766 C 14.940491 36.053911 14.305244 34.677818 14.013672 33.152344 C 14.013672 33.152344 11.175781 31.967266 11.175781 29.447266 C 11.175781 27.911266 12 27 12 27 z"/></svg>